<svg version="1.1" id="Layer_1" xmlns="http://www.w3.org/2000/svg" xmlns:xlink="http://www.w3.org/1999/xlink" x="0px" y="0px"
	 width="100%" viewBox="0 0 1299 1128" enable-background="new 0 0 1299 1128" xml:space="preserve">
<path fill="#FFFFFF" opacity="1.000000" stroke="none" 
	d="
M1.000001,479.000000 
	C1.000000,319.758423 1.000000,160.516876 1.000000,1.000000 
	C86.025642,1.000000 171.051575,1.000000 256.351196,1.376223 
	C250.810471,2.606878 244.816589,2.830744 239.213135,4.426045 
	C216.250061,10.963618 196.986481,23.308622 182.229752,42.286667 
	C167.844025,60.787605 160.228500,81.769730 160.110458,105.217430 
	C160.072632,112.730537 160.768768,120.354553 162.129761,127.743515 
	C164.436295,140.265823 168.702957,152.152573 175.490784,163.102127 
	C186.168732,180.326843 201.615585,193.325226 215.461823,207.593643 
	C246.523178,239.602051 278.846436,270.381470 310.372009,301.944824 
	C358.621674,350.252319 406.500305,398.930573 454.780457,447.207336 
	C504.002899,496.426239 553.527100,545.343262 602.903015,594.408752 
	C614.133118,605.568298 625.297119,616.794373 636.489380,627.992004 
	C638.020752,629.524170 639.462708,631.155701 641.081177,632.588623 
	C643.908508,635.091858 646.876404,639.418518 649.719238,639.366516 
	C652.578979,639.314270 655.505981,635.001282 658.145569,632.303101 
	C666.734192,623.523865 675.197510,614.622131 683.722351,605.780396 
	C701.928772,586.897217 720.146301,568.024658 738.353455,549.142151 
	C746.878662,540.300781 755.381470,531.437866 763.910767,522.600525 
	C773.713074,512.444153 783.402344,502.172943 793.425110,492.238403 
	C796.489441,489.201080 796.161804,487.549347 793.297668,484.681000 
	C647.323975,338.488770 501.435944,192.210922 355.465271,46.015656 
	C348.011414,38.550323 340.170105,31.418671 332.053436,24.680685 
	C319.628784,14.366470 305.559601,7.111633 289.554993,3.978253 
	C284.695251,3.026813 279.851227,1.995001 275.000000,1.000000 
	C616.571350,1.000000 958.142639,1.000000 1300.000000,1.000000 
	C1300.000000,163.692383 1300.000000,326.384949 1299.614502,489.339600 
	C1298.794922,483.351715 1299.063599,476.956055 1297.803589,470.877197 
	C1292.622803,445.881744 1280.443481,424.817719 1260.303711,408.931580 
	C1240.308594,393.159637 1217.061646,385.302063 1191.799805,385.143707 
	C1124.302856,384.720551 1056.801392,384.960022 989.302307,385.121765 
	C986.081543,385.129456 982.223083,386.098755 979.764648,388.026733 
	C971.756714,394.306610 963.886597,400.859985 956.647217,408.001373 
	C942.096008,422.355621 927.941284,437.114441 913.726685,451.806580 
	C901.151672,464.803864 888.717407,477.937256 875.553833,491.708466 
	C885.177063,502.073212 895.694763,513.889709 906.753174,525.176514 
	C918.144836,536.803589 930.064758,547.913086 941.750916,559.251648 
	C953.077332,570.241272 964.399597,581.235291 975.725403,592.225525 
	C979.128052,595.527344 982.839233,597.154663 987.943848,597.135559 
	C1045.276123,596.921204 1102.609253,596.999756 1159.942261,597.001160 
	C1161.442017,597.001221 1162.968872,596.837585 1164.437378,597.056824 
	C1180.785889,599.497498 1197.282104,598.778137 1213.209961,595.604004 
	C1239.902344,590.284729 1262.498535,577.194214 1278.839722,554.663574 
	C1291.216553,537.598755 1298.575684,518.787537 1299.038940,497.508423 
	C1299.078979,495.666168 1299.666626,493.835846 1300.000000,492.000000 
	C1300.000000,704.263000 1300.000000,916.525940 1300.000000,1129.000000 
	C1087.307495,1129.000000 874.614990,1129.000000 661.647949,1128.623535 
	C672.010681,1127.506958 682.214417,1125.067871 692.131958,1121.079712 
	C714.990112,1111.887573 732.458923,1096.743896 744.017273,1074.916992 
	C753.248413,1057.484863 756.719055,1038.504517 756.850037,1019.176514 
	C757.273376,956.704163 757.045715,894.226929 756.929138,831.751831 
	C756.919434,826.551941 755.939880,821.349060 751.886475,817.361572 
	C746.981995,812.536865 742.168640,807.619568 737.276245,802.782471 
	C708.883179,774.711121 680.478638,746.651428 652.075806,718.589966 
	C651.604126,718.123962 651.105164,717.685486 650.567261,717.186157 
	C648.959961,718.348633 647.238342,719.315979 645.856262,720.638123 
	C636.145508,729.927307 626.416931,739.200989 616.862366,748.649780 
	C603.003052,762.355652 589.344482,776.264343 575.484924,789.970032 
	C567.350891,798.013794 559.036621,805.877441 550.719116,813.732727 
	C546.198364,818.002258 543.885986,822.845642 543.903259,829.329468 
	C544.065918,890.471558 543.963989,951.614258 544.044189,1012.756653 
	C544.054565,1020.680847 544.364563,1028.630737 545.060486,1036.522583 
	C546.499084,1052.836792 551.564209,1068.094604 560.470886,1081.815430 
	C575.068298,1104.302612 595.437988,1118.980103 621.635437,1125.261475 
	C627.391541,1126.641602 633.210144,1127.760620 639.000000,1129.000000 
	C426.404510,1129.000000 213.808990,1129.000000 1.000000,1129.000000 
	C1.000000,920.974243 1.000000,712.948364 1.373086,504.644135 
	C2.741711,518.293396 7.475777,531.082336 14.083022,543.179077 
	C23.595373,560.594604 37.327747,574.041382 54.516846,583.781006 
	C73.038162,594.275452 93.313797,598.078247 114.390816,597.961975 
	C123.651390,597.910828 132.908646,597.059814 142.168152,597.045288 
	C199.492340,596.955322 256.816833,597.030457 314.140900,596.900635 
	C316.724854,596.894775 319.901245,596.134216 321.779480,594.529053 
	C328.193298,589.047852 334.137787,583.018738 340.284515,577.223328 
	C345.826721,571.997864 351.571869,566.975525 356.928040,561.567078 
	C377.642242,540.650818 398.274902,519.653198 418.826630,498.577393 
	C421.345886,495.993927 423.192963,492.754913 425.505371,489.610504 
	C421.485870,486.100616 417.822235,483.263123 414.589172,479.999115 
	C408.765350,474.119507 403.372070,467.810181 397.495270,461.986816 
	C374.574036,439.274017 351.563507,416.651093 328.518219,394.064026 
	C322.267029,387.937073 315.399872,384.488403 305.828217,384.736877 
	C277.518402,385.471741 249.176590,384.876648 220.848511,385.028961 
	C180.257172,385.247223 139.664566,385.504364 99.077484,386.090271 
	C85.388695,386.287872 72.529770,390.648682 60.192120,396.385986 
	C47.031929,402.505859 36.023079,411.530823 26.325716,422.200592 
	C16.087576,433.465424 9.085341,446.566711 5.040296,461.201355 
	C3.421235,467.058990 2.330968,473.062744 1.000001,479.000000 
M379.007416,912.507324 
	C449.826752,841.683228 520.658264,770.871216 591.444031,700.013611 
	C597.649292,693.802063 603.586975,687.321106 609.569031,680.890930 
	C610.642822,679.736755 611.324585,678.217896 612.344360,676.621704 
	C562.593018,627.371399 513.017517,578.295227 463.266815,529.045532 
	C452.839386,538.849670 442.079132,548.421570 431.928314,558.601196 
	C374.661133,616.031311 317.584106,673.650879 260.339386,731.103394 
	C245.676819,745.819214 230.384003,759.911560 215.855698,774.755188 
	C203.258591,787.625671 190.541077,800.520935 179.324539,814.561707 
	C166.954758,830.046143 161.094040,848.695007 160.185684,868.460693 
	C159.765747,877.598389 160.570175,886.963135 162.165100,895.987183 
	C165.524124,914.992310 174.133774,931.789368 186.858765,946.214172 
	C197.143005,957.872314 209.394684,966.999756 223.957062,973.088684 
	C244.825760,981.814514 266.362061,983.734619 288.312744,979.714661 
	C308.995605,975.927002 326.069458,964.830566 340.983521,950.429626 
	C353.689636,938.160706 366.014130,925.496521 379.007416,912.507324 
M1027.723511,981.000000 
	C1033.653687,980.667725 1039.582397,980.308105 1045.514160,980.008606 
	C1059.068481,979.324280 1071.778931,975.270081 1083.856445,969.504639 
	C1102.783203,960.469543 1116.605225,945.953430 1126.718750,927.714539 
	C1133.923950,914.720764 1138.587891,900.724304 1139.691162,886.101685 
	C1140.538940,874.863586 1139.634155,863.256287 1137.759399,852.107239 
	C1135.164551,836.675720 1129.156250,822.030640 1118.053833,810.776794 
	C1058.291504,750.199585 998.204224,689.942749 938.159851,629.644226 
	C905.589783,596.936340 872.883606,564.364014 840.229614,531.739746 
	C839.206726,530.717773 838.082397,529.797424 836.314331,528.208679 
	C825.624451,538.554443 814.916382,548.500366 804.687622,558.916870 
	C790.056641,573.816528 775.688354,588.977722 761.372925,604.182617 
	C749.482849,616.811401 737.879395,629.709595 726.059631,642.405273 
	C715.346436,653.912537 704.494141,665.290100 693.757874,676.776062 
	C692.573364,678.043396 691.748840,679.647156 690.860474,680.944397 
	C708.792419,699.353699 726.314758,717.565002 744.086060,735.530090 
	C766.000183,757.683228 788.118896,779.634033 810.153687,801.667786 
	C860.630371,852.141846 911.018372,902.705383 961.710632,952.962036 
	C967.650696,958.851013 974.984375,963.514221 982.177368,967.920837 
	C995.786194,976.258179 1011.111694,979.351990 1027.723511,981.000000 
M845.500000,144.999832 
	C817.902405,172.931229 790.378235,200.935745 762.673828,228.760727 
	C750.254211,241.234467 737.346802,253.221893 724.893677,265.663177 
	C713.498291,277.047821 702.484070,288.813324 691.143372,300.253876 
	C688.696289,302.722473 688.633301,304.216095 691.114014,306.716888 
	C703.868835,319.575287 716.327515,332.727966 729.109070,345.559296 
	C763.800049,380.385071 798.600342,415.101868 833.364624,449.854553 
	C834.508362,450.997986 835.731506,452.061951 837.052246,453.287903 
	C838.118958,452.284119 838.974304,451.521027 839.783508,450.711792 
	C932.634338,357.868286 1025.481934,265.021454 1118.326660,172.171921 
	C1119.149170,171.349487 1120.092407,170.591248 1120.711426,169.630524 
	C1134.043335,148.941116 1140.937378,126.663673 1139.197998,101.687355 
	C1138.299805,88.791924 1135.834717,76.497368 1130.981812,64.648491 
	C1122.117798,43.005840 1107.867554,25.936548 1086.970703,15.051633 
	C1063.569092,2.862065 1038.711670,-0.832448 1012.749573,4.055545 
	C997.883850,6.854368 983.704956,11.895473 971.987549,21.675055 
	C960.220276,31.496277 948.863831,41.876316 937.956421,52.648430 
	C907.131714,83.090813 876.629395,113.859650 845.500000,144.999832 
z"/>
<path fill="#00A2E9" opacity="1.000000" stroke="none" 
	d="
M274.532043,1.000000 
	C279.851227,1.995001 284.695251,3.026813 289.554993,3.978253 
	C305.559601,7.111633 319.628784,14.366470 332.053436,24.680685 
	C340.170105,31.418671 348.011414,38.550323 355.465271,46.015656 
	C501.435944,192.210922 647.323975,338.488770 793.297668,484.681000 
	C796.161804,487.549347 796.489441,489.201080 793.425110,492.238403 
	C783.402344,502.172943 773.713074,512.444153 763.910767,522.600525 
	C755.381470,531.437866 746.878662,540.300781 738.353455,549.142151 
	C720.146301,568.024658 701.928772,586.897217 683.722351,605.780396 
	C675.197510,614.622131 666.734192,623.523865 658.145569,632.303101 
	C655.505981,635.001282 652.578979,639.314270 649.719238,639.366516 
	C646.876404,639.418518 643.908508,635.091858 641.081177,632.588623 
	C639.462708,631.155701 638.020752,629.524170 636.489380,627.992004 
	C625.297119,616.794373 614.133118,605.568298 602.903015,594.408752 
	C553.527100,545.343262 504.002899,496.426239 454.780457,447.207336 
	C406.500305,398.930573 358.621674,350.252319 310.372009,301.944824 
	C278.846436,270.381470 246.523178,239.602051 215.461823,207.593643 
	C201.615585,193.325226 186.168732,180.326843 175.490784,163.102127 
	C168.702957,152.152573 164.436295,140.265823 162.129761,127.743515 
	C160.768768,120.354553 160.072632,112.730537 160.110458,105.217430 
	C160.228500,81.769730 167.844025,60.787605 182.229752,42.286667 
	C196.986481,23.308622 216.250061,10.963618 239.213135,4.426045 
	C244.816589,2.830744 250.810471,2.606878 256.812439,1.376223 
	C262.688049,1.000000 268.376068,1.000000 274.532043,1.000000 
z"/>
<path fill="#00A2E9" opacity="1.000000" stroke="none" 
	d="
M1300.000000,491.666687 
	C1299.666626,493.835846 1299.078979,495.666168 1299.038940,497.508423 
	C1298.575684,518.787537 1291.216553,537.598755 1278.839722,554.663574 
	C1262.498535,577.194214 1239.902344,590.284729 1213.209961,595.604004 
	C1197.282104,598.778137 1180.785889,599.497498 1164.437378,597.056824 
	C1162.968872,596.837585 1161.442017,597.001221 1159.942261,597.001160 
	C1102.609253,596.999756 1045.276123,596.921204 987.943848,597.135559 
	C982.839233,597.154663 979.128052,595.527344 975.725403,592.225525 
	C964.399597,581.235291 953.077332,570.241272 941.750916,559.251648 
	C930.064758,547.913086 918.144836,536.803589 906.753174,525.176514 
	C895.694763,513.889709 885.177063,502.073212 875.553833,491.708466 
	C888.717407,477.937256 901.151672,464.803864 913.726685,451.806580 
	C927.941284,437.114441 942.096008,422.355621 956.647217,408.001373 
	C963.886597,400.859985 971.756714,394.306610 979.764648,388.026733 
	C982.223083,386.098755 986.081543,385.129456 989.302307,385.121765 
	C1056.801392,384.960022 1124.302856,384.720551 1191.799805,385.143707 
	C1217.061646,385.302063 1240.308594,393.159637 1260.303711,408.931580 
	C1280.443481,424.817719 1292.622803,445.881744 1297.803589,470.877197 
	C1299.063599,476.956055 1298.794922,483.351715 1299.614502,489.800842 
	C1300.000000,490.444458 1300.000000,490.888885 1300.000000,491.666687 
z"/>
<path fill="#00A2E9" opacity="1.000000" stroke="none" 
	d="
M1.000001,479.468628 
	C2.330968,473.062744 3.421235,467.058990 5.040296,461.201355 
	C9.085341,446.566711 16.087576,433.465424 26.325716,422.200592 
	C36.023079,411.530823 47.031929,402.505859 60.192120,396.385986 
	C72.529770,390.648682 85.388695,386.287872 99.077484,386.090271 
	C139.664566,385.504364 180.257172,385.247223 220.848511,385.028961 
	C249.176590,384.876648 277.518402,385.471741 305.828217,384.736877 
	C315.399872,384.488403 322.267029,387.937073 328.518219,394.064026 
	C351.563507,416.651093 374.574036,439.274017 397.495270,461.986816 
	C403.372070,467.810181 408.765350,474.119507 414.589172,479.999115 
	C417.822235,483.263123 421.485870,486.100616 425.505371,489.610504 
	C423.192963,492.754913 421.345886,495.993927 418.826630,498.577393 
	C398.274902,519.653198 377.642242,540.650818 356.928040,561.567078 
	C351.571869,566.975525 345.826721,571.997864 340.284515,577.223328 
	C334.137787,583.018738 328.193298,589.047852 321.779480,594.529053 
	C319.901245,596.134216 316.724854,596.894775 314.140900,596.900635 
	C256.816833,597.030457 199.492340,596.955322 142.168152,597.045288 
	C132.908646,597.059814 123.651390,597.910828 114.390816,597.961975 
	C93.313797,598.078247 73.038162,594.275452 54.516846,583.781006 
	C37.327747,574.041382 23.595373,560.594604 14.083022,543.179077 
	C7.475777,531.082336 2.741711,518.293396 1.373086,504.182861 
	C1.000000,495.979095 1.000000,487.958191 1.000001,479.468628 
z"/>
<path fill="#00A2E9" opacity="1.000000" stroke="none" 
	d="
M639.468567,1129.000000 
	C633.210144,1127.760620 627.391541,1126.641602 621.635437,1125.261475 
	C595.437988,1118.980103 575.068298,1104.302612 560.470886,1081.815430 
	C551.564209,1068.094604 546.499084,1052.836792 545.060486,1036.522583 
	C544.364563,1028.630737 544.054565,1020.680847 544.044189,1012.756653 
	C543.963989,951.614258 544.065918,890.471558 543.903259,829.329468 
	C543.885986,822.845642 546.198364,818.002258 550.719116,813.732727 
	C559.036621,805.877441 567.350891,798.013794 575.484924,789.970032 
	C589.344482,776.264343 603.003052,762.355652 616.862366,748.649780 
	C626.416931,739.200989 636.145508,729.927307 645.856262,720.638123 
	C647.238342,719.315979 648.959961,718.348633 650.567261,717.186157 
	C651.105164,717.685486 651.604126,718.123962 652.075806,718.589966 
	C680.478638,746.651428 708.883179,774.711121 737.276245,802.782471 
	C742.168640,807.619568 746.981995,812.536865 751.886475,817.361572 
	C755.939880,821.349060 756.919434,826.551941 756.929138,831.751831 
	C757.045715,894.226929 757.273376,956.704163 756.850037,1019.176514 
	C756.719055,1038.504517 753.248413,1057.484863 744.017273,1074.916992 
	C732.458923,1096.743896 714.990112,1111.887573 692.131958,1121.079712 
	C682.214417,1125.067871 672.010681,1127.506958 661.186768,1128.623535 
	C653.979065,1129.000000 646.958069,1129.000000 639.468567,1129.000000 
z"/>
<path fill="#00A2E9" opacity="1.000000" stroke="none" 
	d="
M378.757446,912.757324 
	C366.014130,925.496521 353.689636,938.160706 340.983521,950.429626 
	C326.069458,964.830566 308.995605,975.927002 288.312744,979.714661 
	C266.362061,983.734619 244.825760,981.814514 223.957062,973.088684 
	C209.394684,966.999756 197.143005,957.872314 186.858765,946.214172 
	C174.133774,931.789368 165.524124,914.992310 162.165100,895.987183 
	C160.570175,886.963135 159.765747,877.598389 160.185684,868.460693 
	C161.094040,848.695007 166.954758,830.046143 179.324539,814.561707 
	C190.541077,800.520935 203.258591,787.625671 215.855698,774.755188 
	C230.384003,759.911560 245.676819,745.819214 260.339386,731.103394 
	C317.584106,673.650879 374.661133,616.031311 431.928314,558.601196 
	C442.079132,548.421570 452.839386,538.849670 463.266815,529.045532 
	C513.017517,578.295227 562.593018,627.371399 612.344360,676.621704 
	C611.324585,678.217896 610.642822,679.736755 609.569031,680.890930 
	C603.586975,687.321106 597.649292,693.802063 591.444031,700.013611 
	C520.658264,770.871216 449.826752,841.683228 378.757446,912.757324 
z"/>
<path fill="#00A2E9" opacity="1.000000" stroke="none" 
	d="
M1027.250366,980.999817 
	C1011.111694,979.351990 995.786194,976.258179 982.177368,967.920837 
	C974.984375,963.514221 967.650696,958.851013 961.710632,952.962036 
	C911.018372,902.705383 860.630371,852.141846 810.153687,801.667786 
	C788.118896,779.634033 766.000183,757.683228 744.086060,735.530090 
	C726.314758,717.565002 708.792419,699.353699 690.860474,680.944397 
	C691.748840,679.647156 692.573364,678.043396 693.757874,676.776062 
	C704.494141,665.290100 715.346436,653.912537 726.059631,642.405273 
	C737.879395,629.709595 749.482849,616.811401 761.372925,604.182617 
	C775.688354,588.977722 790.056641,573.816528 804.687622,558.916870 
	C814.916382,548.500366 825.624451,538.554443 836.314331,528.208679 
	C838.082397,529.797424 839.206726,530.717773 840.229614,531.739746 
	C872.883606,564.364014 905.589783,596.936340 938.159851,629.644226 
	C998.204224,689.942749 1058.291504,750.199585 1118.053833,810.776794 
	C1129.156250,822.030640 1135.164551,836.675720 1137.759399,852.107239 
	C1139.634155,863.256287 1140.538940,874.863586 1139.691162,886.101685 
	C1138.587891,900.724304 1133.923950,914.720764 1126.718750,927.714539 
	C1116.605225,945.953430 1102.783203,960.469543 1083.856445,969.504639 
	C1071.778931,975.270081 1059.068481,979.324280 1045.514160,980.008606 
	C1039.582397,980.308105 1033.653687,980.667725 1027.250366,980.999817 
z"/>
<path fill="#00A2E9" opacity="1.000000" stroke="none" 
	d="
M845.750000,144.749847 
	C876.629395,113.859650 907.131714,83.090813 937.956421,52.648430 
	C948.863831,41.876316 960.220276,31.496277 971.987549,21.675055 
	C983.704956,11.895473 997.883850,6.854368 1012.749573,4.055545 
	C1038.711670,-0.832448 1063.569092,2.862065 1086.970703,15.051633 
	C1107.867554,25.936548 1122.117798,43.005840 1130.981812,64.648491 
	C1135.834717,76.497368 1138.299805,88.791924 1139.197998,101.687355 
	C1140.937378,126.663673 1134.043335,148.941116 1120.711426,169.630524 
	C1120.092407,170.591248 1119.149170,171.349487 1118.326660,172.171921 
	C1025.481934,265.021454 932.634338,357.868286 839.783508,450.711792 
	C838.974304,451.521027 838.118958,452.284119 837.052246,453.287903 
	C835.731506,452.061951 834.508362,450.997986 833.364624,449.854553 
	C798.600342,415.101868 763.800049,380.385071 729.109070,345.559296 
	C716.327515,332.727966 703.868835,319.575287 691.114014,306.716888 
	C688.633301,304.216095 688.696289,302.722473 691.143372,300.253876 
	C702.484070,288.813324 713.498291,277.047821 724.893677,265.663177 
	C737.346802,253.221893 750.254211,241.234467 762.673828,228.760727 
	C790.378235,200.935745 817.902405,172.931229 845.750000,144.749847 
z"/>
</svg>